<svg width="176" height="44" viewBox="0 0 176 44" fill="none" xmlns="http://www.w3.org/2000/svg">
<path d="M3.12891 11.9375H6.10547L10.4883 24.4648L14.8711 11.9375H17.8477L11.6836 29H9.29297L3.12891 11.9375ZM1.52344 11.9375H4.48828L5.02734 24.1484V29H1.52344V11.9375ZM16.4883 11.9375H19.4648V29H15.9492V24.1484L16.4883 11.9375ZM30.2959 25.9648V16.3203H33.6709V29H30.4952L30.2959 25.9648ZM30.6709 23.3633L31.667 23.3398C31.667 24.1836 31.5694 24.9688 31.3741 25.6953C31.1787 26.4141 30.8858 27.0391 30.4952 27.5703C30.1045 28.0938 29.6123 28.5039 29.0186 28.8008C28.4248 29.0898 27.7256 29.2344 26.9209 29.2344C26.3037 29.2344 25.7334 29.1484 25.21 28.9766C24.6944 28.7969 24.2491 28.5195 23.8741 28.1445C23.5069 27.7617 23.2178 27.2734 23.0069 26.6797C22.8037 26.0781 22.7022 25.3555 22.7022 24.5117V16.3203H26.0772V24.5352C26.0772 24.9102 26.1202 25.2266 26.2061 25.4844C26.2998 25.7422 26.4287 25.9531 26.5928 26.1172C26.7569 26.2812 26.9483 26.3984 27.167 26.4688C27.3936 26.5391 27.6436 26.5742 27.917 26.5742C28.6123 26.5742 29.1592 26.4336 29.5577 26.1523C29.9639 25.8711 30.2491 25.4883 30.4131 25.0039C30.585 24.5117 30.6709 23.9648 30.6709 23.3633ZM43.5645 25.4961C43.5645 25.2539 43.4942 25.0352 43.3536 24.8398C43.213 24.6445 42.9512 24.4648 42.5684 24.3008C42.1934 24.1289 41.6505 23.9727 40.9395 23.832C40.2989 23.6914 39.7012 23.5156 39.1466 23.3047C38.5997 23.0859 38.1231 22.8242 37.7169 22.5195C37.3184 22.2148 37.0059 21.8555 36.7794 21.4414C36.5528 21.0195 36.4395 20.5391 36.4395 20C36.4395 19.4688 36.5528 18.9688 36.7794 18.5C37.0137 18.0312 37.3458 17.6172 37.7755 17.2578C38.213 16.8906 38.7442 16.6055 39.3692 16.4023C40.002 16.1914 40.713 16.0859 41.502 16.0859C42.6036 16.0859 43.5489 16.2617 44.338 16.6133C45.1348 16.9648 45.7442 17.4492 46.1661 18.0664C46.5958 18.6758 46.8106 19.3711 46.8106 20.1523H43.4356C43.4356 19.8242 43.3653 19.5312 43.2247 19.2734C43.0919 19.0078 42.8809 18.8008 42.5919 18.6523C42.3106 18.4961 41.9434 18.418 41.4903 18.418C41.1153 18.418 40.7911 18.4844 40.5177 18.6172C40.2442 18.7422 40.0333 18.9141 39.8848 19.1328C39.7442 19.3438 39.6739 19.5781 39.6739 19.8359C39.6739 20.0312 39.713 20.207 39.7911 20.3633C39.877 20.5117 40.0137 20.6484 40.2012 20.7734C40.3887 20.8984 40.6309 21.0156 40.9278 21.125C41.2325 21.2266 41.6075 21.3203 42.0528 21.4062C42.9669 21.5938 43.7833 21.8398 44.502 22.1445C45.2208 22.4414 45.7911 22.8477 46.213 23.3633C46.6348 23.8711 46.8458 24.5391 46.8458 25.3672C46.8458 25.9297 46.7208 26.4453 46.4708 26.9141C46.2208 27.3828 45.8614 27.793 45.3927 28.1445C44.9239 28.4883 44.3614 28.7578 43.7052 28.9531C43.0567 29.1406 42.3262 29.2344 41.5137 29.2344C40.3341 29.2344 39.3341 29.0234 38.5137 28.6016C37.7012 28.1797 37.0841 27.6445 36.6622 26.9961C36.2481 26.3398 36.0411 25.668 36.0411 24.9805H39.2403C39.2559 25.4414 39.3731 25.8125 39.5919 26.0938C39.8184 26.375 40.1036 26.5781 40.4473 26.7031C40.7989 26.8281 41.1778 26.8906 41.5841 26.8906C42.0216 26.8906 42.3848 26.832 42.6739 26.7148C42.963 26.5898 43.1817 26.4258 43.3302 26.2227C43.4864 26.0117 43.5645 25.7695 43.5645 25.4961ZM53.0597 16.3203V29H49.673V16.3203H53.0597ZM49.462 13.0156C49.462 12.5234 49.6339 12.1172 49.9777 11.7969C50.3214 11.4766 50.7823 11.3164 51.3605 11.3164C51.9308 11.3164 52.3878 11.4766 52.7316 11.7969C53.0831 12.1172 53.2589 12.5234 53.2589 13.0156C53.2589 13.5078 53.0831 13.9141 52.7316 14.2344C52.3878 14.5547 51.9308 14.7148 51.3605 14.7148C50.7823 14.7148 50.3214 14.5547 49.9777 14.2344C49.6339 13.9141 49.462 13.5078 49.462 13.0156ZM61.547 26.5977C61.9611 26.5977 62.3283 26.5195 62.6486 26.3633C62.9689 26.1992 63.2189 25.9727 63.3986 25.6836C63.5861 25.3867 63.6838 25.0391 63.6916 24.6406H66.8673C66.8595 25.5312 66.6213 26.3242 66.1525 27.0195C65.6838 27.707 65.0548 28.25 64.2658 28.6484C63.4767 29.0391 62.5939 29.2344 61.6173 29.2344C60.633 29.2344 59.7736 29.0703 59.0392 28.7422C58.3127 28.4141 57.7072 27.9609 57.2228 27.3828C56.7384 26.7969 56.3752 26.1172 56.133 25.3438C55.8908 24.5625 55.7697 23.7266 55.7697 22.8359V22.4961C55.7697 21.5977 55.8908 20.7617 56.133 19.9883C56.3752 19.207 56.7384 18.5273 57.2228 17.9492C57.7072 17.3633 58.3127 16.9062 59.0392 16.5781C59.7658 16.25 60.6173 16.0859 61.5939 16.0859C62.633 16.0859 63.5431 16.2852 64.3244 16.6836C65.1134 17.082 65.7306 17.6523 66.1759 18.3945C66.6291 19.1289 66.8595 20 66.8673 21.0078H63.6916C63.6838 20.5859 63.5939 20.2031 63.422 19.8594C63.258 19.5156 63.0158 19.2422 62.6955 19.0391C62.383 18.8281 61.9963 18.7227 61.5353 18.7227C61.0431 18.7227 60.6408 18.8281 60.3283 19.0391C60.0158 19.2422 59.7736 19.5234 59.6017 19.8828C59.4298 20.2344 59.3088 20.6367 59.2384 21.0898C59.1759 21.5352 59.1447 22.0039 59.1447 22.4961V22.8359C59.1447 23.3281 59.1759 23.8008 59.2384 24.2539C59.3009 24.707 59.4181 25.1094 59.59 25.4609C59.7697 25.8125 60.0158 26.0898 60.3283 26.293C60.6408 26.4961 61.047 26.5977 61.547 26.5977ZM68.7453 22.7891V22.543C68.7453 21.6133 68.8781 20.7578 69.1438 19.9766C69.4094 19.1875 69.7961 18.5039 70.3039 17.9258C70.8117 17.3477 71.4367 16.8984 72.1789 16.5781C72.9211 16.25 73.7727 16.0859 74.7336 16.0859C75.6945 16.0859 76.55 16.25 77.3 16.5781C78.05 16.8984 78.6789 17.3477 79.1867 17.9258C79.7023 18.5039 80.093 19.1875 80.3586 19.9766C80.6242 20.7578 80.757 21.6133 80.757 22.543V22.7891C80.757 23.7109 80.6242 24.5664 80.3586 25.3555C80.093 26.1367 79.7023 26.8203 79.1867 27.4062C78.6789 27.9844 78.0539 28.4336 77.3117 28.7539C76.5695 29.0742 75.718 29.2344 74.757 29.2344C73.7961 29.2344 72.9406 29.0742 72.1906 28.7539C71.4484 28.4336 70.8195 27.9844 70.3039 27.4062C69.7961 26.8203 69.4094 26.1367 69.1438 25.3555C68.8781 24.5664 68.7453 23.7109 68.7453 22.7891ZM72.1203 22.543V22.7891C72.1203 23.3203 72.1672 23.8164 72.2609 24.2773C72.3547 24.7383 72.5031 25.1445 72.7063 25.4961C72.9172 25.8398 73.1906 26.1094 73.5266 26.3047C73.8625 26.5 74.2727 26.5977 74.757 26.5977C75.2258 26.5977 75.6281 26.5 75.9641 26.3047C76.3 26.1094 76.5695 25.8398 76.7727 25.4961C76.9758 25.1445 77.1242 24.7383 77.218 24.2773C77.3195 23.8164 77.3703 23.3203 77.3703 22.7891V22.543C77.3703 22.0273 77.3195 21.543 77.218 21.0898C77.1242 20.6289 76.9719 20.2227 76.7609 19.8711C76.5578 19.5117 76.2883 19.2305 75.9523 19.0273C75.6164 18.8242 75.2102 18.7227 74.7336 18.7227C74.257 18.7227 73.8508 18.8242 73.5148 19.0273C73.1867 19.2305 72.9172 19.5117 72.7063 19.8711C72.5031 20.2227 72.3547 20.6289 72.2609 21.0898C72.1672 21.543 72.1203 22.0273 72.1203 22.543ZM86.8538 11V29H83.467V11H86.8538ZM89.5638 22.7891V22.543C89.5638 21.6133 89.6966 20.7578 89.9622 19.9766C90.2278 19.1875 90.6145 18.5039 91.1223 17.9258C91.6302 17.3477 92.2552 16.8984 92.9973 16.5781C93.7395 16.25 94.5911 16.0859 95.552 16.0859C96.513 16.0859 97.3684 16.25 98.1184 16.5781C98.8684 16.8984 99.4973 17.3477 100.005 17.9258C100.521 18.5039 100.911 19.1875 101.177 19.9766C101.443 20.7578 101.575 21.6133 101.575 22.543V22.7891C101.575 23.7109 101.443 24.5664 101.177 25.3555C100.911 26.1367 100.521 26.8203 100.005 27.4062C99.4973 27.9844 98.8723 28.4336 98.1302 28.7539C97.388 29.0742 96.5364 29.2344 95.5755 29.2344C94.6145 29.2344 93.7591 29.0742 93.0091 28.7539C92.2669 28.4336 91.638 27.9844 91.1223 27.4062C90.6145 26.8203 90.2278 26.1367 89.9622 25.3555C89.6966 24.5664 89.5638 23.7109 89.5638 22.7891ZM92.9388 22.543V22.7891C92.9388 23.3203 92.9856 23.8164 93.0794 24.2773C93.1731 24.7383 93.3216 25.1445 93.5247 25.4961C93.7356 25.8398 94.0091 26.1094 94.345 26.3047C94.6809 26.5 95.0911 26.5977 95.5755 26.5977C96.0442 26.5977 96.4466 26.5 96.7825 26.3047C97.1184 26.1094 97.388 25.8398 97.5911 25.4961C97.7942 25.1445 97.9427 24.7383 98.0364 24.2773C98.138 23.8164 98.1888 23.3203 98.1888 22.7891V22.543C98.1888 22.0273 98.138 21.543 98.0364 21.0898C97.9427 20.6289 97.7903 20.2227 97.5794 19.8711C97.3763 19.5117 97.1067 19.2305 96.7708 19.0273C96.4348 18.8242 96.0286 18.7227 95.552 18.7227C95.0755 18.7227 94.6692 18.8242 94.3333 19.0273C94.0052 19.2305 93.7356 19.5117 93.5247 19.8711C93.3216 20.2227 93.1731 20.6289 93.0794 21.0898C92.9856 21.543 92.9388 22.0273 92.9388 22.543ZM107.485 19.0859V29H104.11V16.3203H107.285L107.485 19.0859ZM111.305 16.2383L111.246 19.3672C111.082 19.3438 110.883 19.3242 110.649 19.3086C110.422 19.2852 110.215 19.2734 110.028 19.2734C109.551 19.2734 109.137 19.3359 108.785 19.4609C108.442 19.5781 108.153 19.7539 107.918 19.9883C107.692 20.2227 107.52 20.5078 107.403 20.8438C107.293 21.1797 107.231 21.5625 107.215 21.9922L106.535 21.7812C106.535 20.9609 106.618 20.207 106.782 19.5195C106.946 18.8242 107.184 18.2188 107.496 17.7031C107.817 17.1875 108.207 16.7891 108.668 16.5078C109.129 16.2266 109.657 16.0859 110.25 16.0859C110.438 16.0859 110.629 16.1016 110.825 16.1328C111.02 16.1562 111.18 16.1914 111.305 16.2383Z" fill="#F5F5F5"/>
<circle cx="154" cy="22" r="20" stroke="url(#paint0_linear_354_378)" stroke-width="4"/>
<defs>
<linearGradient id="paint0_linear_354_378" x1="154" y1="0" x2="154" y2="44" gradientUnits="userSpaceOnUse">
<stop stop-color="#E01313"/>
<stop offset="0.34375" stop-color="#E0D713"/>
<stop offset="0.645833" stop-color="#13E0AF"/>
<stop offset="1" stop-color="#4B2FBB"/>
</linearGradient>
</defs>
</svg>
